<svg xmlns="http://www.w3.org/2000/svg" width="1070" height="1410.0" viewBox="0 0 1070 1410.0">
<rect width="100%" height="100%" fill="#f7f7f7"/>
<g transform="translate(0,0)"><g transform="translate(0,0)"><text x="260.0" y="20" font-size="16" text-anchor="middle" font-family="sans-serif" font-weight="bold">Kalimdor</text><polygon points="153.0,339.7 336.4,339.7 336.4,492.6 214.1,492.6 214.1,431.4 153.0,431.4" fill="#e6194b" fill-opacity="0.55" stroke="#333" stroke-width="1"/><text x="234.5" y="421.2" font-size="11" text-anchor="middle" font-family="sans-serif" stroke="#fff" stroke-width="2.5" paint-order="stroke">Ashenvale</text><polygon points="336.4,339.7 458.7,339.7 458.7,462.0 336.4,462.0" fill="#3cb44b" fill-opacity="0.55" stroke="#333" stroke-width="1"/><text x="397.6" y="400.9" font-size="11" text-anchor="middle" font-family="sans-serif" stroke="#fff" stroke-width="2.5" paint-order="stroke">Azshara</text><polygon points="336.4,125.7 458.7,125.7 458.7,248.0 336.4,248.0" fill="#ffe119" fill-opacity="0.55" stroke="#333" stroke-width="1"/><text x="397.6" y="186.9" font-size="11" text-anchor="middle" font-family="sans-serif" stroke="#fff" stroke-width="2.5" paint-order="stroke">Berceau-de-l'Hiver</text><polygon points="214.1,981.7 305.9,981.7 305.9,1042.9 214.1,1042.9" fill="#4363d8" fill-opacity="0.55" stroke="#333" stroke-width="1"/><text x="260.0" y="1012.3" font-size="11" text-anchor="middle" font-family="sans-serif" stroke="#fff" stroke-width="2.5" paint-order="stroke">Cratère d'Un'Goro</text><polygon points="389.9,462.0 458.7,462.0 458.7,584.3 389.9,584.3" fill="#f58231" fill-opacity="0.55" stroke="#333" stroke-width="1"/><text x="424.3" y="523.1" font-size="11" text-anchor="middle" font-family="sans-serif" stroke="#fff" stroke-width="2.5" paint-order="stroke">Durotar</text><polygon points="61.3,569.0 191.2,569.0 191.2,767.7 61.3,767.7" fill="#911eb4" fill-opacity="0.55" stroke="#333" stroke-width="1"/><text x="126.2" y="668.4" font-size="11" text-anchor="middle" font-family="sans-serif" stroke="#fff" stroke-width="2.5" paint-order="stroke">Désolace</text><polygon points="61.3,767.7 260.0,767.7 260.0,920.6 61.3,920.6" fill="#46f0f0" fill-opacity="0.55" stroke="#333" stroke-width="1"/><text x="160.6" y="844.1" font-size="11" text-anchor="middle" font-family="sans-serif" stroke="#fff" stroke-width="2.5" paint-order="stroke">Feralas</text><polygon points="229.4,202.1 336.4,202.1 336.4,339.7 229.4,339.7" fill="#f032e6" fill-opacity="0.55" stroke="#333" stroke-width="1"/><text x="282.9" y="270.9" font-size="11" text-anchor="middle" font-family="sans-serif" stroke="#fff" stroke-width="2.5" paint-order="stroke">Gangrebois</text><polygon points="373.1,501.7 386.9,758.5 330.3,766.2 344.1,931.3 260.0,868.6 260.0,529.3" fill="#bcf60c" fill-opacity="0.55" stroke="#333" stroke-width="1"/><text x="325.7" y="725.9" font-size="11" text-anchor="middle" font-family="sans-serif" stroke="#fff" stroke-width="2.5" paint-order="stroke">Les Tarides</text><polygon points="386.9,758.5 428.1,767.7 428.1,920.6 344.1,931.3 330.3,766.2" fill="#fabebe" fill-opacity="0.55" stroke="#333" stroke-width="1"/><text x="383.5" y="828.9" font-size="11" text-anchor="middle" font-family="sans-serif" stroke="#fff" stroke-width="2.5" paint-order="stroke">Marécage d'Âprefange</text><polygon points="260.0,935.9 367.0,935.9 367.0,981.7 260.0,981.7" fill="#008080" fill-opacity="0.55" stroke="#333" stroke-width="1"/><text x="313.5" y="958.8" font-size="11" text-anchor="middle" font-family="sans-serif" stroke="#fff" stroke-width="2.5" paint-order="stroke">Mille Pointes</text><polygon points="191.2,569.0 229.4,569.0 229.4,737.1 191.2,737.1" fill="#e6beff" fill-opacity="0.55" stroke="#333" stroke-width="1"/><text x="210.3" y="653.1" font-size="11" text-anchor="middle" font-family="sans-serif" stroke="#fff" stroke-width="2.5" paint-order="stroke">Mulgore</text><polygon points="260.0,110.4 336.4,110.4 336.4,202.1 260.0,202.1" fill="#9a6324" fill-opacity="0.55" stroke="#333" stroke-width="1"/><text x="298.2" y="156.3" font-size="11" text-anchor="middle" font-family="sans-serif" stroke="#fff" stroke-width="2.5" paint-order="stroke">Reflet-de-Lune</text><polygon points="137.7,431.4 214.1,431.4 214.1,569.0 137.7,569.0" fill="#aaffc3" fill-opacity="0.55" stroke="#333" stroke-width="1"/><text x="175.9" y="500.2" font-size="11" text-anchor="middle" font-family="sans-serif" stroke="#fff" stroke-width="2.5" paint-order="stroke">Serres-Rocheuses</text><polygon points="122.4,981.7 214.1,981.7 214.1,1104.0 122.4,1104.0" fill="#800000" fill-opacity="0.55" stroke="#333" stroke-width="1"/><text x="168.3" y="1042.9" font-size="11" text-anchor="middle" font-family="sans-serif" stroke="#fff" stroke-width="2.5" paint-order="stroke">Silithus</text><polygon points="153.0,141.0 229.4,141.0 229.4,339.7 153.0,339.7" fill="#ffd8b1" fill-opacity="0.55" stroke="#333" stroke-width="1"/><text x="191.2" y="240.4" font-size="11" text-anchor="middle" font-family="sans-serif" stroke="#fff" stroke-width="2.5" paint-order="stroke">Sombrivage</text><polygon points="305.9,1012.3 428.1,1012.3 428.1,1104.0 305.9,1104.0" fill="#808000" fill-opacity="0.55" stroke="#333" stroke-width="1"/><text x="367.0" y="1058.1" font-size="11" text-anchor="middle" font-family="sans-serif" stroke="#fff" stroke-width="2.5" paint-order="stroke">Tanaris</text><polygon points="153.0,49.3 229.4,49.3 229.4,125.7 153.0,125.7" fill="#7d5fa8" fill-opacity="0.55" stroke="#333" stroke-width="1"/><text x="191.2" y="87.5" font-size="11" text-anchor="middle" font-family="sans-serif" stroke="#fff" stroke-width="2.5" paint-order="stroke">Teldrassil</text><polygon points="204.7,412.3 265.8,412.3 265.8,473.5 204.7,473.5" fill="none" stroke="#666" stroke-width="1" stroke-dasharray="2,2"/><polygon points="153.0,376.6 214.1,376.6 214.1,437.7 153.0,437.7" fill="none" stroke="#666" stroke-width="1" stroke-dasharray="2,2"/><polygon points="294.5,447.9 355.7,447.9 355.7,509.1 294.5,509.1" fill="none" stroke="#666" stroke-width="1" stroke-dasharray="2,2"/><polygon points="153.0,370.3 198.9,370.3 198.9,416.1 153.0,416.1" fill="none" stroke="#666" stroke-width="1" stroke-dasharray="2,2"/><polygon points="349.4,423.5 410.6,423.5 410.6,484.6 349.4,484.6" fill="none" stroke="#666" stroke-width="1" stroke-dasharray="2,2"/><polygon points="370.1,365.5 431.2,365.5 431.2,426.7 370.1,426.7" fill="none" stroke="#666" stroke-width="1" stroke-dasharray="2,2"/><polygon points="382.4,170.0 443.6,170.0 443.6,231.2 382.4,231.2" fill="none" stroke="#666" stroke-width="1" stroke-dasharray="2,2"/><polygon points="236.9,970.7 298.1,970.7 298.1,1031.9 236.9,1031.9" fill="none" stroke="#666" stroke-width="1" stroke-dasharray="2,2"/><polygon points="336.4,523.1 382.3,523.1 382.3,569.0 336.4,569.0" fill="none" stroke="#666" stroke-width="1" stroke-dasharray="2,2"/><polygon points="374.6,492.6 420.5,492.6 420.5,538.4 374.6,538.4" fill="none" stroke="#666" stroke-width="1" stroke-dasharray="2,2"/><polygon points="366.7,489.2 427.8,489.2 427.8,550.4 366.7,550.4" fill="none" stroke="#666" stroke-width="1" stroke-dasharray="2,2"/><polygon points="351.7,561.4 397.6,561.4 397.6,607.2 351.7,607.2" fill="none" stroke="#666" stroke-width="1" stroke-dasharray="2,2"/><polygon points="138.9,577.7 200.1,577.7 200.1,638.9 138.9,638.9" fill="none" stroke="#666" stroke-width="1" stroke-dasharray="2,2"/><polygon points="84.2,714.2 130.1,714.2 130.1,760.1 84.2,760.1" fill="none" stroke="#666" stroke-width="1" stroke-dasharray="2,2"/><polygon points="60.4,694.0 121.5,694.0 121.5,755.2 60.4,755.2" fill="none" stroke="#666" stroke-width="1" stroke-dasharray="2,2"/><polygon points="183.3,863.4 244.4,863.4 244.4,924.5 183.3,924.5" fill="none" stroke="#666" stroke-width="1" stroke-dasharray="2,2"/><polygon points="56.9,856.4 118.0,856.4 118.0,917.5 56.9,917.5" fill="none" stroke="#666" stroke-width="1" stroke-dasharray="2,2"/><polygon points="145.4,828.9 191.2,828.9 191.2,874.7 145.4,874.7" fill="none" stroke="#666" stroke-width="1" stroke-dasharray="2,2"/><polygon points="222.5,869.1 283.7,869.1 283.7,930.2 222.5,930.2" fill="none" stroke="#666" stroke-width="1" stroke-dasharray="2,2"/><polygon points="272.4,203.8 333.5,203.8 333.5,265.0 272.4,265.0" fill="none" stroke="#666" stroke-width="1" stroke-dasharray="2,2"/><polygon points="207.1,272.6 268.3,272.6 268.3,333.8 207.1,333.8" fill="none" stroke="#666" stroke-width="1" stroke-dasharray="2,2"/><polygon points="267.6,739.0 328.8,739.0 328.8,800.1 267.6,800.1" fill="none" stroke="#666" stroke-width="1" stroke-dasharray="2,2"/><polygon points="252.4,767.7 298.2,767.7 298.2,813.6 252.4,813.6" fill="none" stroke="#666" stroke-width="1" stroke-dasharray="2,2"/><polygon points="321.1,529.3 386.9,529.3 386.9,931.3 321.1,931.3" fill="none" stroke="#666" stroke-width="1" stroke-dasharray="2,2"/><polygon points="296.8,619.0 358.0,619.0 358.0,680.1 296.8,680.1" fill="none" stroke="#666" stroke-width="1" stroke-dasharray="2,2"/><polygon points="260.0,529.3 386.9,529.3 386.9,691.3 260.0,691.3" fill="none" stroke="#666" stroke-width="1" stroke-dasharray="2,2"/><polygon points="260.0,529.3 321.1,529.3 321.1,931.3 260.0,931.3" fill="none" stroke="#666" stroke-width="1" stroke-dasharray="2,2"/><polygon points="344.2,648.8 405.4,648.8 405.4,709.9 344.2,709.9" fill="none" stroke="#666" stroke-width="1" stroke-dasharray="2,2"/><polygon points="260.0,691.3 386.9,691.3 386.9,931.3 260.0,931.3" fill="none" stroke="#666" stroke-width="1" stroke-dasharray="2,2"/><polygon points="306.2,787.9 367.3,787.9 367.3,849.0 306.2,849.0" fill="none" stroke="#666" stroke-width="1" stroke-dasharray="2,2"/><polygon points="344.1,867.1 389.9,867.1 389.9,912.9 344.1,912.9" fill="none" stroke="#666" stroke-width="1" stroke-dasharray="2,2"/><polygon points="373.4,832.4 434.6,832.4 434.6,893.5 373.4,893.5" fill="none" stroke="#666" stroke-width="1" stroke-dasharray="2,2"/><polygon points="288.4,928.2 349.6,928.2 349.6,989.4 288.4,989.4" fill="none" stroke="#666" stroke-width="1" stroke-dasharray="2,2"/><polygon points="267.6,935.9 313.5,935.9 313.5,981.7 267.6,981.7" fill="none" stroke="#666" stroke-width="1" stroke-dasharray="2,2"/><polygon points="252.4,920.6 298.2,920.6 298.2,966.4 252.4,966.4" fill="none" stroke="#666" stroke-width="1" stroke-dasharray="2,2"/><polygon points="175.9,691.3 221.8,691.3 221.8,737.1 175.9,737.1" fill="none" stroke="#666" stroke-width="1" stroke-dasharray="2,2"/><polygon points="190.9,662.7 252.1,662.7 252.1,723.8 190.9,723.8" fill="none" stroke="#666" stroke-width="1" stroke-dasharray="2,2"/><polygon points="198.9,645.4 244.7,645.4 244.7,691.3 198.9,691.3" fill="none" stroke="#666" stroke-width="1" stroke-dasharray="2,2"/><polygon points="134.0,419.2 195.2,419.2 195.2,480.3 134.0,480.3" fill="none" stroke="#666" stroke-width="1" stroke-dasharray="2,2"/><polygon points="150.7,526.5 211.9,526.5 211.9,587.6 150.7,587.6" fill="none" stroke="#666" stroke-width="1" stroke-dasharray="2,2"/><polygon points="158.4,1010.0 219.5,1010.0 219.5,1071.1 158.4,1071.1" fill="none" stroke="#666" stroke-width="1" stroke-dasharray="2,2"/><polygon points="130.1,1050.5 175.9,1050.5 175.9,1096.4 130.1,1096.4" fill="none" stroke="#666" stroke-width="1" stroke-dasharray="2,2"/><polygon points="153.0,1019.9 198.9,1019.9 198.9,1065.8 153.0,1065.8" fill="none" stroke="#666" stroke-width="1" stroke-dasharray="2,2"/><polygon points="153.0,225.1 198.9,225.1 198.9,270.9 153.0,270.9" fill="none" stroke="#666" stroke-width="1" stroke-dasharray="2,2"/><polygon points="171.3,192.2 232.5,192.2 232.5,253.3 171.3,253.3" fill="none" stroke="#666" stroke-width="1" stroke-dasharray="2,2"/><polygon points="168.3,179.2 214.1,179.2 214.1,225.1 168.3,225.1" fill="none" stroke="#666" stroke-width="1" stroke-dasharray="2,2"/><polygon points="342.1,1037.8 403.2,1037.8 403.2,1099.0 342.1,1099.0" fill="none" stroke="#666" stroke-width="1" stroke-dasharray="2,2"/><polygon points="313.5,1012.3 359.4,1012.3 359.4,1058.1 313.5,1058.1" fill="none" stroke="#666" stroke-width="1" stroke-dasharray="2,2"/><polygon points="145.4,56.9 191.2,56.9 191.2,102.8 145.4,102.8" fill="none" stroke="#666" stroke-width="1" stroke-dasharray="2,2"/><polygon points="168.3,34.0 229.4,34.0 229.4,95.1 168.3,95.1" fill="none" stroke="#666" stroke-width="1" stroke-dasharray="2,2"/><polygon points="160.6,72.2 206.5,72.2 206.5,118.1 160.6,118.1" fill="none" stroke="#666" stroke-width="1" stroke-dasharray="2,2"/><polygon points="160.5,48.4 221.6,48.4 221.6,109.5 160.5,109.5" fill="none" stroke="#666" stroke-width="1" stroke-dasharray="2,2"/><circle cx="221.4" cy="693.3" r="2.4" fill="#000" stroke="#fff" stroke-width="0.6"/><circle cx="397.2" cy="519.7" r="2.4" fill="#000" stroke="#fff" stroke-width="0.6"/><circle cx="327.4" cy="649.6" r="2.4" fill="#000" stroke="#fff" stroke-width="0.6"/><circle cx="201.9" cy="222.7" r="2.4" fill="#000" stroke="#fff" stroke-width="0.6"/><circle cx="191.0" cy="78.9" r="2.4" fill="#000" stroke="#fff" stroke-width="0.6"/><circle cx="235.2" cy="442.9" r="2.4" fill="#000" stroke="#fff" stroke-width="0.6"/><circle cx="181.2" cy="557.1" r="2.4" fill="#000" stroke="#fff" stroke-width="0.6"/><circle cx="318.9" cy="958.9" r="2.4" fill="#000" stroke="#fff" stroke-width="0.6"/><circle cx="253.1" cy="899.7" r="2.4" fill="#000" stroke="#fff" stroke-width="0.6"/><circle cx="404.0" cy="863.0" r="2.4" fill="#000" stroke="#fff" stroke-width="0.6"/><circle cx="164.6" cy="449.7" r="2.4" fill="#000" stroke="#fff" stroke-width="0.6"/><circle cx="169.5" cy="608.3" r="2.4" fill="#000" stroke="#fff" stroke-width="0.6"/><circle cx="91.0" cy="724.6" r="2.4" fill="#000" stroke="#fff" stroke-width="0.6"/><circle cx="372.7" cy="1068.3" r="2.4" fill="#000" stroke="#fff" stroke-width="0.6"/><circle cx="87.4" cy="887.0" r="2.4" fill="#000" stroke="#fff" stroke-width="0.6"/><circle cx="213.9" cy="893.9" r="2.4" fill="#000" stroke="#fff" stroke-width="0.6"/><circle cx="400.7" cy="396.2" r="2.4" fill="#000" stroke="#fff" stroke-width="0.6"/><circle cx="237.7" cy="303.2" r="2.4" fill="#000" stroke="#fff" stroke-width="0.6"/><circle cx="317.5" cy="156.5" r="2.4" fill="#000" stroke="#fff" stroke-width="0.6"/><circle cx="412.9" cy="200.6" r="2.4" fill="#000" stroke="#fff" stroke-width="0.6"/><circle cx="336.7" cy="818.5" r="2.4" fill="#000" stroke="#fff" stroke-width="0.6"/><circle cx="185.0" cy="75.1" r="2.4" fill="#000" stroke="#fff" stroke-width="0.6"/><circle cx="183.5" cy="407.1" r="2.4" fill="#000" stroke="#fff" stroke-width="0.6"/><circle cx="325.2" cy="478.5" r="2.4" fill="#000" stroke="#fff" stroke-width="0.6"/><circle cx="321.6" cy="136.3" r="2.4" fill="#000" stroke="#fff" stroke-width="0.6"/><circle cx="379.9" cy="454.1" r="2.4" fill="#000" stroke="#fff" stroke-width="0.6"/><circle cx="302.9" cy="234.4" r="2.4" fill="#000" stroke="#fff" stroke-width="0.6"/><circle cx="188.9" cy="1040.6" r="2.4" fill="#000" stroke="#fff" stroke-width="0.6"/><circle cx="298.2" cy="769.5" r="2.4" fill="#000" stroke="#fff" stroke-width="0.6"/><circle cx="267.5" cy="1001.2" r="2.4" fill="#000" stroke="#fff" stroke-width="0.6"/><circle cx="374.7" cy="679.3" r="2.4" fill="#000" stroke="#fff" stroke-width="0.6"/></g></g>
<g transform="translate(550,0)"><g transform="translate(0,0)"><text x="260.0" y="20" font-size="16" text-anchor="middle" font-family="sans-serif" font-weight="bold">EK</text><polygon points="260.0,313.8 358.8,313.8 358.8,412.6 260.0,412.6" fill="#e6194b" fill-opacity="0.55" stroke="#333" stroke-width="1"/><text x="309.4" y="363.2" font-size="11" text-anchor="middle" font-family="sans-serif" stroke="#fff" stroke-width="2.5" paint-order="stroke">Arathi</text><polygon points="194.2,873.5 276.5,873.5 276.5,1038.2 194.2,1038.2" fill="#3cb44b" fill-opacity="0.55" stroke="#333" stroke-width="1"/><text x="235.3" y="955.8" font-size="11" text-anchor="middle" font-family="sans-serif" stroke="#fff" stroke-width="2.5" paint-order="stroke">Bois de la Pénombre</text><polygon points="194.2,519.6 292.9,519.6 292.9,643.1 194.2,643.1" fill="#ffe119" fill-opacity="0.55" stroke="#333" stroke-width="1"/><text x="243.5" y="581.3" font-size="11" text-anchor="middle" font-family="sans-serif" stroke="#fff" stroke-width="2.5" paint-order="stroke">Dun Morogh</text><polygon points="276.5,939.4 325.8,939.4 325.8,1005.2 276.5,1005.2" fill="#4363d8" fill-opacity="0.55" stroke="#333" stroke-width="1"/><text x="301.2" y="972.3" font-size="11" text-anchor="middle" font-family="sans-serif" stroke="#fff" stroke-width="2.5" paint-order="stroke">Défilé de Deuillevent</text><polygon points="128.3,774.8 194.2,774.8 194.2,906.5 128.3,906.5" fill="#f58231" fill-opacity="0.55" stroke="#333" stroke-width="1"/><text x="161.2" y="840.6" font-size="11" text-anchor="middle" font-family="sans-serif" stroke="#fff" stroke-width="2.5" paint-order="stroke">Elwynn</text><polygon points="62.5,149.2 144.8,149.2 144.8,280.9 62.5,280.9" fill="#911eb4" fill-opacity="0.55" stroke="#333" stroke-width="1"/><text x="103.6" y="215.1" font-size="11" text-anchor="middle" font-family="sans-serif" stroke="#fff" stroke-width="2.5" paint-order="stroke">Forêt des Pins argentés</text><polygon points="194.2,676.0 260.0,676.0 260.0,741.8 194.2,741.8" fill="#46f0f0" fill-opacity="0.55" stroke="#333" stroke-width="1"/><text x="227.1" y="708.9" font-size="11" text-anchor="middle" font-family="sans-serif" stroke="#fff" stroke-width="2.5" paint-order="stroke">Gorge des Vents brûlants</text><polygon points="161.2,215.1 260.0,215.1 260.0,346.8 161.2,346.8" fill="#f032e6" fill-opacity="0.55" stroke="#333" stroke-width="1"/><text x="210.6" y="280.9" font-size="11" text-anchor="middle" font-family="sans-serif" stroke="#fff" stroke-width="2.5" paint-order="stroke">Hillsbrad</text><polygon points="276.5,840.6 325.8,840.6 325.8,939.4 276.5,939.4" fill="#bcf60c" fill-opacity="0.55" stroke="#333" stroke-width="1"/><text x="301.2" y="890.0" font-size="11" text-anchor="middle" font-family="sans-serif" stroke="#fff" stroke-width="2.5" paint-order="stroke">Les Carmines</text><polygon points="260.0,149.2 457.5,149.2 457.5,313.8 260.0,313.8" fill="#fabebe" fill-opacity="0.55" stroke="#333" stroke-width="1"/><text x="358.8" y="231.5" font-size="11" text-anchor="middle" font-family="sans-serif" stroke="#fff" stroke-width="2.5" paint-order="stroke">Les Hinterlands</text><polygon points="194.2,412.6 292.9,412.6 292.9,519.6 194.2,519.6" fill="#008080" fill-opacity="0.55" stroke="#333" stroke-width="1"/><text x="243.5" y="466.1" font-size="11" text-anchor="middle" font-family="sans-serif" stroke="#fff" stroke-width="2.5" paint-order="stroke">Les Paluns</text><polygon points="292.9,544.3 358.8,544.3 358.8,643.1 292.9,643.1" fill="#e6beff" fill-opacity="0.55" stroke="#333" stroke-width="1"/><text x="325.8" y="593.7" font-size="11" text-anchor="middle" font-family="sans-serif" stroke="#fff" stroke-width="2.5" paint-order="stroke">Loch Modan</text><polygon points="260.0,50.5 457.5,50.5 457.5,149.2 260.0,149.2" fill="#9a6324" fill-opacity="0.55" stroke="#333" stroke-width="1"/><text x="358.8" y="99.8" font-size="11" text-anchor="middle" font-family="sans-serif" stroke="#fff" stroke-width="2.5" paint-order="stroke">Maleterres de l'est</text><polygon points="194.2,116.3 260.0,116.3 260.0,215.1 194.2,215.1" fill="#aaffc3" fill-opacity="0.55" stroke="#333" stroke-width="1"/><text x="227.1" y="165.7" font-size="11" text-anchor="middle" font-family="sans-serif" stroke="#fff" stroke-width="2.5" paint-order="stroke">Maleterres de l'ouest</text><polygon points="325.8,939.4 391.7,939.4 391.7,1021.7 325.8,1021.7" fill="#800000" fill-opacity="0.55" stroke="#333" stroke-width="1"/><text x="358.8" y="980.5" font-size="11" text-anchor="middle" font-family="sans-serif" stroke="#fff" stroke-width="2.5" paint-order="stroke">Marais des Chagrins</text><polygon points="95.4,906.5 161.2,906.5 161.2,1038.2 95.4,1038.2" fill="#ffd8b1" fill-opacity="0.55" stroke="#333" stroke-width="1"/><text x="128.3" y="972.3" font-size="11" text-anchor="middle" font-family="sans-serif" stroke="#fff" stroke-width="2.5" paint-order="stroke">Marche de l'Ouest</text><polygon points="161.2,182.2 194.2,182.2 194.2,215.1 161.2,215.1" fill="#808000" fill-opacity="0.55" stroke="#333" stroke-width="1"/><text x="177.7" y="198.6" font-size="11" text-anchor="middle" font-family="sans-serif" stroke="#fff" stroke-width="2.5" paint-order="stroke">Montagnes d'Alterac</text><polygon points="227.1,741.8 342.3,741.8 342.3,840.6 227.1,840.6" fill="#7d5fa8" fill-opacity="0.55" stroke="#333" stroke-width="1"/><text x="284.7" y="791.2" font-size="11" text-anchor="middle" font-family="sans-serif" stroke="#fff" stroke-width="2.5" paint-order="stroke">Steppes ardentes</text><polygon points="128.3,1071.1 227.1,1071.1 227.1,1301.5 128.3,1301.5" fill="#000075" fill-opacity="0.55" stroke="#333" stroke-width="1"/><text x="177.7" y="1186.3" font-size="11" text-anchor="middle" font-family="sans-serif" stroke="#fff" stroke-width="2.5" paint-order="stroke">Strangleronce</text><polygon points="325.8,1021.7 391.7,1021.7 391.7,1169.8 325.8,1169.8" fill="#5f9ea0" fill-opacity="0.55" stroke="#333" stroke-width="1"/><text x="358.8" y="1095.8" font-size="11" text-anchor="middle" font-family="sans-serif" stroke="#fff" stroke-width="2.5" paint-order="stroke">Terres foudroyées</text><polygon points="260.0,643.1 358.8,643.1 358.8,741.8 260.0,741.8" fill="#8b4513" fill-opacity="0.55" stroke="#333" stroke-width="1"/><text x="309.4" y="692.5" font-size="11" text-anchor="middle" font-family="sans-serif" stroke="#fff" stroke-width="2.5" paint-order="stroke">Terres ingrates</text><polygon points="144.8,83.4 194.2,83.4 194.2,182.2 144.8,182.2" fill="#c71585" fill-opacity="0.55" stroke="#333" stroke-width="1"/><text x="169.5" y="132.8" font-size="11" text-anchor="middle" font-family="sans-serif" stroke="#fff" stroke-width="2.5" paint-order="stroke">Tirisfal</text><polygon points="270.4,301.0 336.2,301.0 336.2,366.9 270.4,366.9" fill="none" stroke="#666" stroke-width="1" stroke-dasharray="2,2"/><polygon points="292.9,313.8 342.3,313.8 342.3,363.2 292.9,363.2" fill="none" stroke="#666" stroke-width="1" stroke-dasharray="2,2"/><polygon points="317.3,281.4 383.1,281.4 383.1,347.3 317.3,347.3" fill="none" stroke="#666" stroke-width="1" stroke-dasharray="2,2"/><polygon points="208.6,953.0 274.5,953.0 274.5,1018.9 208.6,1018.9" fill="none" stroke="#666" stroke-width="1" stroke-dasharray="2,2"/><polygon points="185.9,552.5 235.3,552.5 235.3,601.9 185.9,601.9" fill="none" stroke="#666" stroke-width="1" stroke-dasharray="2,2"/><polygon points="204.9,549.9 270.7,549.9 270.7,615.8 204.9,615.8" fill="none" stroke="#666" stroke-width="1" stroke-dasharray="2,2"/><polygon points="218.8,527.8 268.2,527.8 268.2,577.2 218.8,577.2" fill="none" stroke="#666" stroke-width="1" stroke-dasharray="2,2"/><polygon points="276.5,939.4 325.8,939.4 325.8,988.8 276.5,988.8" fill="none" stroke="#666" stroke-width="1" stroke-dasharray="2,2"/><polygon points="136.5,807.7 185.9,807.7 185.9,857.1 136.5,857.1" fill="none" stroke="#666" stroke-width="1" stroke-dasharray="2,2"/><polygon points="136.5,840.6 185.9,840.6 185.9,890.0 136.5,890.0" fill="none" stroke="#666" stroke-width="1" stroke-dasharray="2,2"/><polygon points="125.7,828.6 191.5,828.6 191.5,894.4 125.7,894.4" fill="none" stroke="#666" stroke-width="1" stroke-dasharray="2,2"/><polygon points="87.2,215.1 136.5,215.1 136.5,264.5 87.2,264.5" fill="none" stroke="#666" stroke-width="1" stroke-dasharray="2,2"/><polygon points="77.8,165.7 143.6,165.7 143.6,231.5 77.8,231.5" fill="none" stroke="#666" stroke-width="1" stroke-dasharray="2,2"/><polygon points="203.5,672.2 269.4,672.2 269.4,738.1 203.5,738.1" fill="none" stroke="#666" stroke-width="1" stroke-dasharray="2,2"/><polygon points="191.8,207.7 257.7,207.7 257.7,273.5 191.8,273.5" fill="none" stroke="#666" stroke-width="1" stroke-dasharray="2,2"/><polygon points="175.2,256.9 241.1,256.9 241.1,322.7 175.2,322.7" fill="none" stroke="#666" stroke-width="1" stroke-dasharray="2,2"/><polygon points="255.1,879.5 320.9,879.5 320.9,945.3 255.1,945.3" fill="none" stroke="#666" stroke-width="1" stroke-dasharray="2,2"/><polygon points="367.0,248.0 416.4,248.0 416.4,297.4 367.0,297.4" fill="none" stroke="#666" stroke-width="1" stroke-dasharray="2,2"/><polygon points="246.3,191.5 312.2,191.5 312.2,257.4 246.3,257.4" fill="none" stroke="#666" stroke-width="1" stroke-dasharray="2,2"/><polygon points="375.6,265.8 441.4,265.8 441.4,331.6 375.6,331.6" fill="none" stroke="#666" stroke-width="1" stroke-dasharray="2,2"/><polygon points="187.4,475.7 253.3,475.7 253.3,541.5 187.4,541.5" fill="none" stroke="#666" stroke-width="1" stroke-dasharray="2,2"/><polygon points="289.3,598.3 355.1,598.3 355.1,664.1 289.3,664.1" fill="none" stroke="#666" stroke-width="1" stroke-dasharray="2,2"/><polygon points="404.5,60.2 470.4,60.2 470.4,126.0 404.5,126.0" fill="none" stroke="#666" stroke-width="1" stroke-dasharray="2,2"/><polygon points="334.1,91.6 383.5,91.6 383.5,141.0 334.1,141.0" fill="none" stroke="#666" stroke-width="1" stroke-dasharray="2,2"/><polygon points="358.8,91.6 408.2,91.6 408.2,141.0 358.8,141.0" fill="none" stroke="#666" stroke-width="1" stroke-dasharray="2,2"/><polygon points="202.4,157.5 251.8,157.5 251.8,206.8 202.4,206.8" fill="none" stroke="#666" stroke-width="1" stroke-dasharray="2,2"/><polygon points="219.2,143.8 285.0,143.8 285.0,209.6 219.2,209.6" fill="none" stroke="#666" stroke-width="1" stroke-dasharray="2,2"/><polygon points="218.8,141.0 268.2,141.0 268.2,190.4 218.8,190.4" fill="none" stroke="#666" stroke-width="1" stroke-dasharray="2,2"/><polygon points="304.8,955.7 370.6,955.7 370.6,1021.5 304.8,1021.5" fill="none" stroke="#666" stroke-width="1" stroke-dasharray="2,2"/><polygon points="325.8,955.8 375.2,955.8 375.2,1005.2 325.8,1005.2" fill="none" stroke="#666" stroke-width="1" stroke-dasharray="2,2"/><polygon points="99.2,953.2 165.0,953.2 165.0,1019.1 99.2,1019.1" fill="none" stroke="#666" stroke-width="1" stroke-dasharray="2,2"/><polygon points="87.2,955.8 136.5,955.8 136.5,1005.2 87.2,1005.2" fill="none" stroke="#666" stroke-width="1" stroke-dasharray="2,2"/><polygon points="153.0,173.9 202.4,173.9 202.4,223.3 153.0,223.3" fill="none" stroke="#666" stroke-width="1" stroke-dasharray="2,2"/><polygon points="243.5,725.4 292.9,725.4 292.9,774.8 243.5,774.8" fill="none" stroke="#666" stroke-width="1" stroke-dasharray="2,2"/><polygon points="253.4,743.2 319.3,743.2 319.3,809.0 253.4,809.0" fill="none" stroke="#666" stroke-width="1" stroke-dasharray="2,2"/><polygon points="227.1,733.6 276.5,733.6 276.5,783.0 227.1,783.0" fill="none" stroke="#666" stroke-width="1" stroke-dasharray="2,2"/><polygon points="235.3,733.6 284.7,733.6 284.7,783.0 235.3,783.0" fill="none" stroke="#666" stroke-width="1" stroke-dasharray="2,2"/><polygon points="243.5,741.8 292.9,741.8 292.9,791.2 243.5,791.2" fill="none" stroke="#666" stroke-width="1" stroke-dasharray="2,2"/><polygon points="227.1,725.4 276.5,725.4 276.5,774.8 227.1,774.8" fill="none" stroke="#666" stroke-width="1" stroke-dasharray="2,2"/><polygon points="235.3,717.2 284.7,717.2 284.7,766.5 235.3,766.5" fill="none" stroke="#666" stroke-width="1" stroke-dasharray="2,2"/><polygon points="279.6,805.9 345.4,805.9 345.4,871.7 279.6,871.7" fill="none" stroke="#666" stroke-width="1" stroke-dasharray="2,2"/><polygon points="127.5,1221.9 193.3,1221.9 193.3,1287.7 127.5,1287.7" fill="none" stroke="#666" stroke-width="1" stroke-dasharray="2,2"/><polygon points="141.1,1082.6 207.0,1082.6 207.0,1148.4 141.1,1148.4" fill="none" stroke="#666" stroke-width="1" stroke-dasharray="2,2"/><polygon points="136.5,1128.7 185.9,1128.7 185.9,1178.1 136.5,1178.1" fill="none" stroke="#666" stroke-width="1" stroke-dasharray="2,2"/><polygon points="325.8,1112.2 375.2,1112.2 375.2,1161.6 325.8,1161.6" fill="none" stroke="#666" stroke-width="1" stroke-dasharray="2,2"/><polygon points="312.2,1002.6 378.0,1002.6 378.0,1068.4 312.2,1068.4" fill="none" stroke="#666" stroke-width="1" stroke-dasharray="2,2"/><polygon points="253.3,681.4 319.1,681.4 319.1,747.3 253.3,747.3" fill="none" stroke="#666" stroke-width="1" stroke-dasharray="2,2"/><polygon points="260.0,676.0 309.4,676.0 309.4,725.4 260.0,725.4" fill="none" stroke="#666" stroke-width="1" stroke-dasharray="2,2"/><polygon points="153.0,116.3 202.4,116.3 202.4,165.7 153.0,165.7" fill="none" stroke="#666" stroke-width="1" stroke-dasharray="2,2"/><polygon points="161.2,75.2 210.6,75.2 210.6,124.5 161.2,124.5" fill="none" stroke="#666" stroke-width="1" stroke-dasharray="2,2"/><polygon points="138.3,92.9 204.2,92.9 204.2,158.8 138.3,158.8" fill="none" stroke="#666" stroke-width="1" stroke-dasharray="2,2"/><circle cx="181.9" cy="866.6" r="2.4" fill="#000" stroke="#fff" stroke-width="0.6"/><circle cx="158.5" cy="861.5" r="2.4" fill="#000" stroke="#fff" stroke-width="0.6"/><circle cx="132.1" cy="986.2" r="2.4" fill="#000" stroke="#fff" stroke-width="0.6"/><circle cx="288.1" cy="912.3" r="2.4" fill="#000" stroke="#fff" stroke-width="0.6"/><circle cx="237.8" cy="582.8" r="2.4" fill="#000" stroke="#fff" stroke-width="0.6"/><circle cx="220.3" cy="508.7" r="2.4" fill="#000" stroke="#fff" stroke-width="0.6"/><circle cx="322.2" cy="631.2" r="2.4" fill="#000" stroke="#fff" stroke-width="0.6"/><circle cx="160.4" cy="1254.8" r="2.4" fill="#000" stroke="#fff" stroke-width="0.6"/><circle cx="110.7" cy="198.6" r="2.4" fill="#000" stroke="#fff" stroke-width="0.6"/><circle cx="171.3" cy="125.8" r="2.4" fill="#000" stroke="#fff" stroke-width="0.6"/><circle cx="241.6" cy="985.9" r="2.4" fill="#000" stroke="#fff" stroke-width="0.6"/><circle cx="224.7" cy="240.6" r="2.4" fill="#000" stroke="#fff" stroke-width="0.6"/><circle cx="208.2" cy="289.8" r="2.4" fill="#000" stroke="#fff" stroke-width="0.6"/><circle cx="438.9" cy="96.4" r="2.4" fill="#000" stroke="#fff" stroke-width="0.6"/><circle cx="303.3" cy="334.0" r="2.4" fill="#000" stroke="#fff" stroke-width="0.6"/><circle cx="350.2" cy="314.4" r="2.4" fill="#000" stroke="#fff" stroke-width="0.6"/><circle cx="174.1" cy="1115.5" r="2.4" fill="#000" stroke="#fff" stroke-width="0.6"/><circle cx="286.2" cy="714.4" r="2.4" fill="#000" stroke="#fff" stroke-width="0.6"/><circle cx="279.3" cy="224.4" r="2.4" fill="#000" stroke="#fff" stroke-width="0.6"/><circle cx="345.1" cy="1035.5" r="2.4" fill="#000" stroke="#fff" stroke-width="0.6"/><circle cx="337.8" cy="988.6" r="2.4" fill="#000" stroke="#fff" stroke-width="0.6"/><circle cx="252.1" cy="176.7" r="2.4" fill="#000" stroke="#fff" stroke-width="0.6"/><circle cx="437.4" cy="93.0" r="2.4" fill="#000" stroke="#fff" stroke-width="0.6"/><circle cx="286.4" cy="776.0" r="2.4" fill="#000" stroke="#fff" stroke-width="0.6"/><circle cx="312.4" cy="838.8" r="2.4" fill="#000" stroke="#fff" stroke-width="0.6"/><circle cx="236.4" cy="705.2" r="2.4" fill="#000" stroke="#fff" stroke-width="0.6"/><circle cx="408.5" cy="298.6" r="2.4" fill="#000" stroke="#fff" stroke-width="0.6"/></g></g>
</svg>